<svg width="597" height="394" viewBox="0 0 597 394" fill="none" xmlns="http://www.w3.org/2000/svg">
<g clip-path="url(#clip0_580_187)">
<path d="M15.8071 393.131C15.8071 393.613 16.2281 394 16.7524 394H596.055C596.579 394 597 393.613 597 393.131C597 392.649 596.579 392.262 596.055 392.262H16.7524C16.2281 392.262 15.8071 392.649 15.8071 393.131Z" fill="#3F3D58"/>
<path d="M201.309 69.499H15.5135C8.42802 69.499 2.66113 64.1962 2.66113 57.6809C2.66113 51.1656 8.42802 45.8628 15.5135 45.8628H201.309C208.394 45.8628 214.161 51.1656 214.161 57.6809C214.161 64.1962 208.394 69.499 201.309 69.499ZM15.5135 47.3236C9.30179 47.3236 4.24981 51.9691 4.24981 57.6809C4.24981 63.3927 9.30179 68.0382 15.5135 68.0382H201.309C207.521 68.0382 212.573 63.3927 212.573 57.6809C212.573 51.9691 207.521 47.3236 201.309 47.3236H15.5135Z" fill="#E2E3E4"/>
<path d="M201.309 207.803H15.5133C8.6423 207.803 3.05811 202.668 3.05811 196.35C3.05811 190.032 8.6423 184.897 15.5133 184.897H201.309C208.18 184.897 213.764 190.032 213.764 196.35C213.764 202.668 208.18 207.803 201.309 207.803Z" fill="#00B0FF"/>
<path d="M140.423 22.9058H12.4552C5.58419 22.9058 0 17.771 0 11.4529C0 5.13481 5.58419 0 12.4552 0H140.423C147.294 0 152.878 5.13481 152.878 11.4529C152.878 17.771 147.294 22.9058 140.423 22.9058Z" fill="#E2E3E4"/>
<path d="M201.309 115.719H15.5135C8.42802 115.719 2.66113 110.417 2.66113 103.901C2.66113 97.3861 8.42802 92.0833 15.5135 92.0833H201.309C208.394 92.0833 214.161 97.3861 214.161 103.901C214.161 110.417 208.394 115.719 201.309 115.719ZM15.5135 93.5441C9.30179 93.5441 4.24981 98.1895 4.24981 103.901C4.24981 109.613 9.30179 114.259 15.5135 114.259H201.309C207.521 114.259 212.573 109.613 212.573 103.901C212.573 98.1895 207.521 93.5441 201.309 93.5441H15.5135Z" fill="#E2E3E4"/>
<path d="M201.309 161.947H15.5135C8.42802 161.947 2.66113 156.645 2.66113 150.129C2.66113 143.614 8.42802 138.311 15.5135 138.311H201.309C208.394 138.311 214.161 143.614 214.161 150.129C214.161 156.645 208.394 161.947 201.309 161.947ZM15.5135 139.772C9.30179 139.772 4.24981 144.418 4.24981 150.129C4.24981 155.841 9.30179 160.487 15.5135 160.487H201.309C207.521 160.487 212.573 155.841 212.573 150.129C212.573 144.418 207.521 139.772 201.309 139.772H15.5135Z" fill="#E2E3E4"/>
<path d="M9.12697 37.3752H57.8198C58.9796 37.3752 59.9248 38.2371 59.9248 39.3108C59.9248 40.3772 58.9796 41.2464 57.8198 41.2464H9.12697C7.96723 41.2464 7.02197 40.3846 7.02197 39.3108C7.02197 38.2444 7.96723 37.3752 9.12697 37.3752Z" fill="#E2E3E4"/>
<path d="M9.12697 84.6914H57.8198C58.9796 84.6914 59.9248 85.5533 59.9248 86.6197C59.9248 87.6861 58.9796 88.5553 57.8198 88.5553H9.12697C7.96723 88.5553 7.02197 87.6934 7.02197 86.627C7.02197 85.5606 7.96723 84.6914 9.12697 84.6914Z" fill="#E2E3E4"/>
<path d="M9.12697 132.015H57.8198C58.9796 132.015 59.9248 132.877 59.9248 133.951C59.9248 135.017 58.9796 135.879 57.8198 135.879H9.12697C7.96723 135.879 7.02197 135.017 7.02197 133.943C7.02197 132.877 7.96723 132.015 9.12697 132.015Z" fill="#E2E3E4"/>
<path d="M355.132 96.6047L337.371 101.981V78.4685H353.488L355.132 96.6047Z" fill="#9F616A"/>
<path d="M339.571 84.9765C349.345 84.9765 357.269 77.6905 357.269 68.7028C357.269 59.7151 349.345 52.4292 339.571 52.4292C329.797 52.4292 321.873 59.7151 321.873 68.7028C321.873 77.6905 329.797 84.9765 339.571 84.9765Z" fill="#9F616A"/>
<path d="M344.433 67.0886C341.47 67.0083 339.524 64.2546 338.372 61.742C337.22 59.2294 336.036 56.3442 333.288 55.307C331.04 54.4598 327.076 60.1935 325.305 58.667C323.454 57.0746 325.257 48.9013 327.219 47.4332C329.181 45.9651 331.866 45.6802 334.392 45.5706C340.556 45.3077 346.76 45.7678 352.805 46.9292C356.546 47.645 360.391 48.726 363.092 51.2094C366.507 54.3648 367.381 59.1198 367.627 63.568C367.881 68.1185 367.595 72.8808 365.189 76.8616C362.782 80.8423 357.746 83.7786 352.916 82.7633C352.432 80.3529 352.924 77.8768 353.115 75.4227C353.297 72.9758 353.107 70.3317 351.478 68.3815C349.858 66.4313 346.379 65.657 344.488 67.3881" fill="#2F2E43"/>
<path d="M366.205 72.7274C367.976 71.5368 370.097 70.5361 372.274 70.7845C374.625 71.0474 376.619 72.8296 377.222 74.9405C377.826 77.0514 377.151 79.3742 375.689 81.0979C374.236 82.8217 372.067 83.9612 369.78 84.5309C368.453 84.8596 366.999 84.9983 365.736 84.5017C363.878 83.7639 362.869 81.58 363.6 79.8416" fill="#2F2E43"/>
<path d="M298.48 225.844C297.296 231.191 299.465 236.077 303.31 236.757C307.154 237.436 311.229 233.645 312.405 228.298C312.905 226.166 312.826 223.96 312.174 221.856L326.814 138.041L308.505 134.871L301.435 219.964C299.934 221.688 298.925 223.704 298.48 225.851V225.844Z" fill="#9F616A"/>
<path d="M337.18 91.1924H324.685C315.852 92.4268 313.453 96.7581 311.444 104.763C308.378 116.976 304.461 133.235 305.24 133.476C306.487 133.856 327.759 143.059 338.602 140.955L337.18 91.1924Z" fill="#E2E3E4"/>
<path d="M349.262 358.166H332.628V379.867H349.262V358.166Z" fill="#9F616A"/>
<path d="M316.432 392.999C314.685 392.999 313.128 392.963 311.952 392.86C307.536 392.488 303.318 389.486 301.197 387.733C300.243 386.944 299.942 385.688 300.434 384.607C300.792 383.833 301.499 383.248 302.38 383.022L314.057 379.954L332.962 368.224L333.177 368.574C333.256 368.706 335.115 371.781 335.734 373.855C335.973 374.644 335.909 375.301 335.552 375.813C335.306 376.163 334.956 376.368 334.678 376.485C335.02 376.813 336.092 377.485 339.396 377.967C344.218 378.669 345.235 374.074 345.274 373.884L345.306 373.731L345.449 373.643C347.745 372.285 349.159 371.664 349.643 371.795C349.945 371.876 350.454 372.022 351.828 384.534C351.963 384.928 352.924 387.806 352.273 390.56C351.566 393.554 337.331 392.525 334.479 392.291C334.4 392.298 323.74 392.999 316.44 392.999H316.432Z" fill="#2F2E43"/>
<path d="M396.625 341.116L382.512 349.21L395 367.623L409.114 359.529L396.625 341.116Z" fill="#9F616A"/>
<path d="M377.882 390.027C375.928 390.027 374.133 389.807 372.854 389.603C371.599 389.398 370.614 388.478 370.407 387.324C370.264 386.491 370.526 385.651 371.146 385.031L379.288 376.748L388.582 357.596L388.963 357.786C389.106 357.859 392.45 359.561 394.174 361.022C394.833 361.577 395.159 362.169 395.143 362.775C395.135 363.198 394.96 363.534 394.785 363.775C395.262 363.892 396.557 363.936 399.639 362.738C404.135 360.993 402.355 356.596 402.276 356.413L402.213 356.267L402.284 356.128C403.452 353.856 404.286 352.644 404.778 352.52C405.088 352.439 405.596 352.315 413.961 362.271C414.302 362.534 416.773 364.513 417.805 367.165C418.925 370.05 406.256 376.105 403.706 377.288C403.626 377.347 390.369 386.207 384.92 388.726C382.759 389.727 380.201 390.034 377.874 390.034L377.882 390.027Z" fill="#2F2E43"/>
<path d="M361.511 176.695H314.939L310.713 216.531L329.205 363.724H352.98L343.471 278.712L382.036 355.463L403.166 341.863L373.052 270.21C373.052 270.21 383.808 207.788 375.356 192.238C366.904 176.695 361.511 176.695 361.511 176.695Z" fill="#2F2E43"/>
<path d="M384.682 179.12H310.713L332.907 91.1924H365.133L384.682 179.12Z" fill="#E2E3E4"/>
<path d="M391.338 225.844C392.521 231.191 390.353 236.077 386.508 236.757C382.664 237.436 378.589 233.645 377.413 228.298C376.913 226.166 376.992 223.96 377.644 221.856L363.004 138.041L381.313 134.871L388.383 219.964C389.884 221.688 390.893 223.704 391.338 225.851V225.844Z" fill="#9F616A"/>
<path d="M352.638 91.1924H365.133C373.966 92.4268 376.365 96.7581 378.375 104.763C381.441 116.976 385.357 133.235 384.578 133.476C383.331 133.856 362.059 143.059 351.216 140.955L352.638 91.1924Z" fill="#E2E3E4"/>
</g>
<defs>
<clipPath id="clip0_580_187">
<rect width="597" height="394" rx="20" fill="white"/>
</clipPath>
</defs>
</svg>
