<svg width="73" height="73" viewBox="0 0 73 73" fill="none" xmlns="http://www.w3.org/2000/svg">
<ellipse opacity="0.1" cx="36.8292" cy="36.3338" rx="36.1334" ry="35.7254" fill="#885757"/>
<path fill-rule="evenodd" clip-rule="evenodd" d="M48.4355 47.4983H43.9221V39.6845C43.9221 37.5409 42.9663 36.345 41.2523 36.345C39.3871 36.345 38.2802 37.5912 38.2802 39.6845V47.4983H33.7667V32.9849H38.2802V34.617C38.2802 34.617 39.6963 32.1584 42.8873 32.1584C46.0795 32.1584 48.4355 34.0858 48.4355 38.0736V47.4983ZM28.6236 30.6637C27.1015 30.6637 25.8682 29.4335 25.8682 27.9163C25.8682 26.4002 27.1015 25.1699 28.6236 25.1699C30.1447 25.1699 31.378 26.4002 31.378 27.9163C31.3791 29.4335 30.1447 30.6637 28.6236 30.6637ZM25.8682 47.4983H31.51V32.9849H25.8682V47.4983Z" fill="#885757"/>
</svg>
